#!OML:ASF X:\für Bonn\!DataBase\2005_08_12_Daniel\c3d\Daniel.ASF
:FULLY-SPECIFIED
:DEGREES
32
root -15.6692 20.0638 -0.0378307 326.673 83.8731 330.896
lowerback 8.09909 -0.639127 6.0896
upperback -3.44089 -0.159431 -0.228203
thorax -8.2402 -0.404496 -3.64734
lowerneck 3.91281 2.97312 -4.42132
upperneck 4.51071 3.97872 -1.74326
head 0.686757 1.95789 0.165451
rclavicle -4.29872e-015 2.78299e-014
rhumerus -12.1972 49.5922 -94.6928
rradius 108.917
rwrist -0.802936
rhand -25.3463 27.0027
rfingers 7.12502
rthumb 1.17713 -2.9738
lclavicle -4.29872e-015 2.78299e-014
lhumerus 172.232 220.493 253.36
lradius 119.78
lwrist 19.4787
lhand -8.26505 -16.3364
lfingers 7.12502
lthumb 17.6538 12.8822
rfemur 5.07327 5.03689 26.0972
rtibia 37.9449
rfoot 30.3154 -1.31301
rtoes -10.947
lfemur -3.39483 -1.78288 -16.8349
ltibia 54.5864
lfoot 17.0606 -4.98129
ltoes -9.04962
33
root -15.4157 20.2272 -0.0327531 327.422 83.7508 332.184
lowerback 8.48769 -0.595627 6.04864
upperback -3.09383 -0.0963557 -0.247563
thorax -8.08211 -0.361301 -3.65514
lowerneck 3.49287 2.94899 -4.44808
upperneck 4.69455 3.97607 -1.78173
head 0.812125 1.94866 0.168083
rclavicle 2.57178e-015 2.11706e-014
rhumerus -12.4299 49.5988 -94.5036
rradius 110.214
rwrist -0.894928
rhand -24.828 26.39
rfingers 7.12502
rthumb 1.67771 -3.58315
lclavicle 2.57178e-015 2.11706e-014
lhumerus 172.114 221.002 253.114
lradius 120.369
lwrist 20.0372
lhand -8.3745 -15.5758
lfingers 7.12502
lthumb 17.5485 13.6522
rfemur 5.13215 4.95025 26.0767
rtibia 38.5134
rfoot 30.1545 -1.63818
rtoes -11.1776
lfemur -3.16101 -1.73464 -17.1647
ltibia 55.2996
lfoot 17.3143 -5.09208
ltoes -8.65975
34
root -15.1655 20.383 -0.0301125 327.676 83.5764 332.979
lowerback 8.90365 -0.568209 6.05734
upperback -2.70027 -0.0421459 -0.200235
thorax -7.89113 -0.320341 -3.61888
lowerneck 2.97986 2.93789 -4.52289
upperneck 4.8839 3.99833 -1.88161
head 0.955692 1.94961 0.161559
rclavicle -8.32411e-016 -1.30204e-014
rhumerus -12.7469 49.6422 -94.321
rradius 111.342
rwrist -1.11972
rhand -24.3305 25.6958
rfingers 7.12502
rthumb 2.15814 -4.27298
lclavicle -8.32411e-016 -1.30204e-014
lhumerus 171.824 221.342 253.112
lradius 120.834
lwrist 20.4201
lhand -8.49348 -14.6852
lfingers 7.12502
lthumb 17.434 14.553
rfemur 5.13247 4.74072 26.0531
rtibia 39.0331
rfoot 29.8673 -2.23422
rtoes -11.5277
lfemur -2.87677 -1.54692 -17.3697
ltibia 55.8114
lfoot 17.627 -5.01153
ltoes -7.48978
35
root -14.9239 20.5284 -0.0290244 327.52 83.4615 333.314
lowerback 9.33194 -0.572368 6.08428
upperback -2.2971 -0.0255727 -0.149619
thorax -7.70148 -0.297719 -3.5839
lowerneck 2.40849 2.92631 -4.59092
upperneck 5.04997 4.02281 -1.9726
head 1.10292 1.95089 0.157579
rclavicle 1.03244e-014 2.98177e-015
rhumerus -13.1615 49.6875 -94.2363
rradius 112.254
rwrist -1.45595
rhand -23.8437 25.1225
rfingers 7.12502
rthumb 2.62833 -4.84104
lclavicle 1.03244e-014 2.98177e-015
lhumerus 171.475 221.629 253.182
lradius 121.115
lwrist 20.6826
lhand -8.65229 -13.7996
lfingers 7.12502
lthumb 17.2811 15.4521
rfemur 4.96198 4.36485 25.9858
rtibia 39.5754
rfoot 29.2966 -2.78892
rtoes -13.2608
lfemur -2.66478 -1.23589 -17.4646
ltibia 56.1246
lfoot 17.7952 -4.87464
ltoes -6.7212
36
root -14.6905 20.6641 -0.0289568 327.254 83.324 333.478
lowerback 9.77509 -0.573592 6.13246
upperback -1.87842 0.00199905 -0.0729147
thorax -7.50269 -0.268568 -3.53521
lowerneck 1.57158 2.91586 -4.69351
upperneck 5.343 4.07109 -2.0648
head 1.33587 1.9576 0.165697
rclavicle -6.72141e-015 -6.85807e-015
rhumerus -13.6311 49.7159 -94.1267
rradius 112.98
rwrist -1.8787
rhand -23.474 24.7048
rfingers 7.12502
rthumb 2.98532 -5.25408
lclavicle -6.72141e-015 -6.85807e-015
lhumerus 171.098 221.833 253.331
lradius 121.206
lwrist 20.7593
lhand -8.78512 -13.0783
lfingers 7.12502
lthumb 17.1533 16.1846
rfemur 4.61302 3.78113 25.848
rtibia 40.1497
rfoot 28.7898 -3.20507
rtoes -14.1073
lfemur -2.55536 -0.69557 -17.4112
ltibia 56.2725
lfoot 17.8037 -4.73108
ltoes -6.71748
37
root -14.4684 20.7869 -0.0295386 326.633 83.228 333.167
lowerback 10.1949 -0.554155 6.06905
upperback -1.49565 0.0581117 0.177748
thorax -7.32528 -0.216915 -3.24348
lowerneck 0.572147 2.87477 -5.13843
upperneck 5.74818 4.10117 -2.12213
head 1.62997 1.94504 0.245757
rclavicle -4.94787e-015 -3.10601e-016
rhumerus -14.2597 49.7561 -93.9517
rradius 113.388
rwrist -2.15696
rhand -23.2269 24.627
rfingers 7.12502
rthumb 3.22397 -5.32841
lclavicle -4.94787e-015 -3.10601e-016
lhumerus 170.467 221.95 253.994
lradius 121.095
lwrist 20.598
lhand -8.91612 -12.6511
lfingers 7.12502
lthumb 17.0272 16.6226
rfemur 4.04033 3.00303 25.6537
rtibia 40.7105
rfoot 28.2846 -3.51421
rtoes -14.0868
lfemur -2.66302 -0.0597829 -17.229
ltibia 56.3304
lfoot 17.6693 -4.55184
ltoes -6.89978
